<?xml version="1.0" encoding="UTF-8" standalone="no"?>
<svg
   viewBox="0 0 512 512"
   version="1.1"
   id="svg1"
   sodipodi:docname="docs2crates.svg"
   inkscape:version="1.3.2 (091e20ef0f, 2023-11-25, custom)"
   inkscape:export-filename="docs2grates-128.png"
   inkscape:export-xdpi="24"
   inkscape:export-ydpi="24"
   xmlns:inkscape="http://www.inkscape.org/namespaces/inkscape"
   xmlns:sodipodi="http://sodipodi.sourceforge.net/DTD/sodipodi-0.dtd"
   xmlns="http://www.w3.org/2000/svg"
   xmlns:svg="http://www.w3.org/2000/svg">
  <defs
     id="defs1">
    <rect
       x="46.62543"
       y="202.77663"
       width="449.97938"
       height="141.63574"
       id="rect17" />
    <rect
       x="16.274914"
       y="195.29897"
       width="359.80757"
       height="85.773186"
       id="rect1" />
  </defs>
  <sodipodi:namedview
     id="namedview1"
     pagecolor="#ffffff"
     bordercolor="#000000"
     borderopacity="0.25"
     inkscape:showpageshadow="2"
     inkscape:pageopacity="0.0"
     inkscape:pagecheckerboard="0"
     inkscape:deskcolor="#d1d1d1"
     inkscape:zoom="2.2734375"
     inkscape:cx="207.39519"
     inkscape:cy="261.71821"
     inkscape:window-width="2560"
     inkscape:window-height="1368"
     inkscape:window-x="0"
     inkscape:window-y="0"
     inkscape:window-maximized="1"
     inkscape:current-layer="svg1" />
  <!--! Font Awesome Free 6.2.0 by @fontawesome - https://fontawesome.com License - https://fontawesome.com/license/free (Icons: CC BY 4.0, Fonts: SIL OFL 1.1, Code: MIT License) Copyright 2022 Fonticons, Inc. -->
  <path
     d="m 256.01172,1.9492187 c -7.28745,0 -14.56177,1.2500124 -21.51172,3.75 L 42.5,74.300781 C 17.000125,83.400736 0,107.59976 0,134.59961 v 242.80078 c 0,27.09985 17.000516,51.19888 42.400391,60.29883 l 191.999999,68.60156 c 13.99995,5 29.19966,5 43.09961,0 l 192,-68.60156 C 494.99985,428.59927 512,404.40024 512,377.40039 V 134.59961 c 0,-27.09985 -17.00054,-51.198874 -42.40039,-60.298829 l -192,-68.6015623 c -6.99995,-2.4999876 -14.30044,-3.7499999 -21.58789,-3.75 z"
     id="path2"
     sodipodi:nodetypes="sccssccccssccs" />
  <text
     xml:space="preserve"
     id="text17"
     style="font-weight:bold;font-size:64px;font-family:'Fira Sans';-inkscape-font-specification:'Fira Sans, Bold';white-space:pre;shape-inside:url(#rect17);display:inline;fill:#ffffff;fill-opacity:1;stroke-width:20"
     transform="translate(35.071027,19.09999)"><tspan
       x="46.625"
       y="260.64401"
       id="tspan1">docs2crates</tspan></text>
</svg>
